<svg width="5" height="20" viewBox="0 0 5 20" fill="none" xmlns="http://www.w3.org/2000/svg">
<path d="M2.5 0C3.88072 0 5 1.11929 5 2.50003C5 3.88069 3.88072 5 2.5 5C1.11929 5 6.03526e-08 3.88069 0 2.50003C-6.03529e-08 1.11929 1.11929 0 2.5 0Z" fill="#1A70D3"/>
<path d="M2.5 7.5C3.88072 7.5 5 8.61929 5 10C5 11.3807 3.88072 12.5 2.5 12.5C1.11929 12.5 6.03526e-08 11.3807 0 10C-6.03529e-08 8.61929 1.11929 7.5 2.5 7.5Z" fill="#1A70D3"/>
<path d="M2.5 15C3.88072 15 5 16.1193 5 17.5C5 18.8807 3.88072 20 2.5 20C1.11929 20 6.03526e-08 18.8807 0 17.5C-6.03529e-08 16.1193 1.11929 15 2.5 15Z" fill="#1A70D3"/>
</svg>
